<svg xmlns="http://www.w3.org/2000/svg" viewBox="0 0 64 64"><path d="M31 35h2a1 1 0 0 1 1 1 1 1 0 0 0 2 0 3 3 0 0 0-3-3V32a1 1 0 0 0-2 0v1a3 3 0 0 0 0 6h2a1 1 0 0 1 0 2H31a1 1 0 0 1-1-1 1 1 0 0 0-2 0 3 3 0 0 0 3 3v1a1 1 0 0 0 2 0V43a3 3 0 0 0 0-6H31a1 1 0 0 1 0-2zM22 35h2a1 1 0 0 1 1 1 1 1 0 0 0 2 0 3 3 0 0 0-3-3V32a1 1 0 0 0-2 0v1a3 3 0 0 0 0 6h2a1 1 0 0 1 0 2H22a1 1 0 0 1-1-1 1 1 0 0 0-2 0 3 3 0 0 0 3 3v1a1 1 0 0 0 2 0V43a3 3 0 0 0 0-6H22a1 1 0 0 1 0-2zM45 40a3 3 0 0 0-3-3H40a1 1 0 0 1 0-2h2a1 1 0 0 1 1 1 1 1 0 0 0 2 0 3 3 0 0 0-3-3V32a1 1 0 0 0-2 0v1a3 3 0 0 0 0 6h2a1 1 0 0 1 0 2H40a1 1 0 0 1-1-1 1 1 0 0 0-2 0 3 3 0 0 0 3 3v1a1 1 0 0 0 2 0V43A3 3 0 0 0 45 40zM48.737 18.177L32.6 7.036a1 1 0 0 0-1.136 0L15.292 18.176A1 1 0 0 0 15.86 20H48.168a1 1 0 0 0 .569-1.823zM19.075 18l12.96-8.926L44.96 18z"/><path d="M61,56H60V53a1,1,0,0,0-1-1H58V49a1,1,0,0,0-1-1H56V45a1,1,0,0,0-1-1H54V32h1a1,1,0,0,0,1-1V28h3a1,1,0,0,0,1-1V24h1a1,1,0,0,0,.57-1.82l-28.96-20a.992.992,0,0,0-1.14,0l-29.04,20A1,1,0,0,0,3,24H4v3a1,1,0,0,0,1,1H8v3a1,1,0,0,0,1,1h1V44H9a1,1,0,0,0-1,1v3H7a1,1,0,0,0-1,1v3H5a1,1,0,0,0-1,1v3H3a1,1,0,0,0-1,1v4a1,1,0,0,0,1,1H61a1,1,0,0,0,1-1V57A1,1,0,0,0,61,56ZM54,30H46V28h8ZM19,44H18V32h1a1,1,0,0,0,1-1V28H44v3a1,1,0,0,0,1,1h1V44H45a1,1,0,0,0-1,1v3H20V45A1,1,0,0,0,19,44ZM10,30V28h8v2Zm6,2V44H12V32ZM46,46h8v2H46Zm2-2V32h4V44ZM32.04,4.21,57.79,22H6.21ZM6,26V24H58v2Zm4,20h8v2H10ZM8,50H56v2H8ZM6,54H58v2H6Zm54,6H4V58H60Z"/><path d="M29,14a3,3,0,1,0,3-3A3,3,0,0,0,29,14Zm4,0a1,1,0,1,1-1-1A1,1,0,0,1,33,14Z"/></svg>